<?xml version="1.0" standalone="no"?>
<!DOCTYPE svg PUBLIC "-//W3C//DTD SVG 20010904//EN"
 "http://www.w3.org/TR/2001/REC-SVG-20010904/DTD/svg10.dtd">
<svg version="1.0" xmlns="http://www.w3.org/2000/svg"
 width="575.000000pt" height="575.000000pt" viewBox="0 0 575.000000 575.000000"
 preserveAspectRatio="xMidYMid meet">
<metadata>
Created by potrace 1.14, written by Peter Selinger 2001-2017
</metadata>
<g transform="translate(0.000000,575.000000) scale(0.100000,-0.100000)"
fill="#000000" stroke="none">
<path d="M2678 5745 c-1 -1 -34 -5 -73 -8 -109 -9 -224 -27 -340 -53 -38 -9
-77 -17 -85 -19 -69 -14 -276 -81 -380 -123 -207 -84 -487 -239 -621 -346 -15
-12 -39 -30 -54 -41 -16 -11 -33 -25 -39 -30 -6 -6 -39 -33 -74 -60 -90 -72
-285 -273 -381 -394 -105 -132 -184 -251 -264 -393 -63 -113 -69 -125 -125
-248 -89 -196 -183 -520 -208 -715 -3 -22 -7 -51 -10 -65 -25 -154 -26 -600 0
-750 3 -14 7 -43 10 -66 18 -143 90 -418 151 -575 112 -291 252 -536 446 -780
85 -107 306 -334 393 -405 27 -21 54 -44 60 -49 6 -6 36 -28 66 -50 30 -22 57
-43 58 -47 2 -5 10 -8 17 -8 7 0 15 -3 17 -8 8 -19 254 -164 383 -226 107 -51
275 -119 377 -151 102 -32 309 -84 363 -90 22 -3 51 -7 65 -10 38 -7 79 -13
145 -21 81 -10 494 -11 575 -1 78 9 209 26 230 31 8 1 33 6 55 10 128 25 418
109 443 128 6 6 12 8 12 5 0 -12 291 123 415 193 119 66 330 216 445 315 51
43 279 273 318 320 81 97 212 274 212 286 0 4 6 14 13 21 39 40 183 318 251
485 66 161 145 437 161 558 2 19 7 52 11 72 4 21 8 46 10 56 25 144 25 693 -1
771 -2 6 -7 29 -10 51 -45 324 -160 654 -342 985 -28 51 -186 291 -205 312 -7
7 -29 34 -48 58 -57 75 -99 120 -225 245 -101 102 -153 147 -305 268 -30 24
-196 134 -255 169 -240 144 -596 283 -850 334 -219 43 -341 56 -577 59 -124 2
-228 2 -230 0z"/>
</g>
</svg>
