<?xml version="1.0" standalone="no"?>
<!DOCTYPE svg PUBLIC "-//W3C//DTD SVG 20010904//EN"
 "http://www.w3.org/TR/2001/REC-SVG-20010904/DTD/svg10.dtd">
<svg version="1.0" xmlns="http://www.w3.org/2000/svg"
 width="512.000000pt" height="512.000000pt" viewBox="0 0 512.000000 512.000000"
 preserveAspectRatio="xMidYMid meet">
<metadata>
Created by potrace 1.14, written by Peter Selinger 2001-2017
</metadata>
<g transform="translate(0.000000,512.000000) scale(0.100000,-0.100000)"
fill="#000000" stroke="none">
<path d="M2379 5116 c-2 -2 -35 -6 -74 -10 -411 -36 -859 -202 -1210 -449
-537 -378 -916 -955 -1044 -1587 -38 -190 -46 -275 -45 -520 0 -183 3 -241 19
-345 3 -16 7 -43 9 -60 57 -382 240 -805 495 -1140 115 -152 272 -311 446
-454 311 -253 771 -457 1170 -516 22 -4 51 -8 65 -11 146 -27 532 -26 710 2
445 68 826 227 1176 490 514 386 872 965 984 1592 44 248 49 593 11 837 -126
819 -643 1528 -1386 1902 -70 35 -119 59 -200 93 -85 37 -376 122 -465 136
-14 2 -38 6 -55 9 -16 3 -50 8 -75 11 -25 3 -56 8 -70 10 -30 6 -455 15 -461
10z m337 -320 c55 -4 110 -8 121 -11 12 -2 43 -7 70 -10 279 -39 602 -163 877
-338 137 -86 321 -244 446 -383 72 -80 187 -231 225 -295 211 -358 304 -637
340 -1024 7 -75 7 -283 0 -350 -12 -116 -16 -152 -21 -180 -40 -228 -89 -388
-175 -573 -22 -46 -39 -85 -39 -87 0 -10 -110 -192 -158 -260 -312 -449 -771
-766 -1301 -900 -326 -83 -695 -88 -1021 -15 -25 6 -54 12 -65 15 -72 14 -269
82 -360 124 -214 98 -376 200 -550 347 -371 314 -645 775 -740 1248 -35 175
-45 275 -45 456 -4 888 527 1696 1350 2058 120 52 305 111 435 137 157 32 175
34 340 41 77 4 142 8 143 10 2 1 9 1 15 -1 7 -2 57 -6 113 -9z"/>
<path d="M3576 4199 c-20 -16 -26 -29 -26 -59 0 -35 5 -42 73 -95 92 -73 250
-235 320 -328 140 -186 239 -390 297 -612 24 -94 41 -171 45 -210 20 -171 22
-257 12 -398 -8 -95 -7 -98 17 -122 49 -48 135 -16 137 52 1 15 3 42 4 58 5
44 6 274 1 315 -3 19 -7 62 -11 95 -10 96 -60 303 -99 406 -122 326 -285 565
-543 798 -88 80 -149 121 -178 121 -12 0 -34 -9 -49 -21z"/>
<path d="M3386 3725 c-37 -40 -27 -81 31 -130 115 -96 217 -212 274 -312 114
-198 159 -370 156 -598 -1 -147 3 -167 39 -183 34 -16 55 -15 81 6 34 26 40
63 38 222 -5 326 -123 619 -345 853 -153 162 -222 198 -274 142z"/>
<path d="M3244 3352 c-29 -4 -52 -31 -60 -70 -6 -28 0 -37 67 -104 112 -111
154 -210 158 -368 1 -77 4 -87 27 -107 25 -23 68 -30 91 -15 52 33 55 193 6
342 -28 88 -77 165 -153 241 -75 75 -95 88 -136 81z"/>
<path d="M2440 3144 c-36 -8 -101 -32 -146 -54 -207 -102 -340 -327 -328 -555
14 -266 191 -483 449 -550 320 -84 646 116 724 441 28 121 20 238 -26 354
-105 265 -392 420 -673 364z m238 -333 c60 -31 95 -64 127 -123 26 -46 30 -64
29 -128 0 -64 -4 -83 -29 -128 -54 -100 -133 -147 -245 -146 -111 0 -191 47
-242 141 -84 154 -11 336 159 399 50 19 150 11 201 -15z"/>
<path d="M673 2630 c-38 -16 -48 -51 -44 -158 2 -82 80 -121 132 -66 21 23 24
34 23 106 -1 64 -5 83 -20 98 -24 23 -62 32 -91 20z"/>
<path d="M1152 2500 c-33 -14 -44 -55 -38 -145 3 -44 7 -90 10 -101 2 -12 7
-38 10 -58 34 -211 150 -445 311 -625 54 -61 116 -70 151 -23 27 34 17 75 -31
128 -170 187 -273 423 -291 669 -8 111 -13 133 -37 150 -24 17 -51 18 -85 5z"/>
<path d="M1563 2394 c-24 -24 -25 -30 -20 -102 13 -175 103 -340 247 -457 95
-76 171 -77 186 -1 9 50 -1 69 -50 100 -89 56 -168 154 -199 248 -9 26 -21 82
-26 125 -8 60 -14 82 -31 95 -32 26 -76 23 -107 -8z"/>
<path d="M698 2314 c-46 -24 -51 -63 -23 -184 114 -493 403 -909 828 -1188 54
-35 110 -67 125 -71 35 -10 70 6 86 38 26 54 8 82 -93 146 -120 75 -224 158
-322 257 -85 86 -209 238 -209 256 0 6 -4 12 -9 14 -17 6 -131 223 -173 328
-22 58 -56 165 -74 238 -18 74 -38 140 -44 147 -21 25 -64 34 -92 19z"/>
<path d="M1695 1507 c-51 -28 -61 -93 -21 -130 40 -37 112 -68 140 -61 30 7
57 35 58 60 3 45 -12 70 -65 102 -63 38 -86 44 -112 29z"/>
</g>
</svg>
